<?xml version="1.0" encoding="utf-8"?>
<!-- Generator: Adobe Illustrator 27.5.0, SVG Export Plug-In . SVG Version: 6.00 Build 0)  -->
<svg version="1.1" id="b" xmlns="http://www.w3.org/2000/svg" xmlns:xlink="http://www.w3.org/1999/xlink" x="0px" y="0px"
	 viewBox="0 0 492.4 101.9" style="enable-background:new 0 0 492.4 101.9;" xml:space="preserve">
<style type="text/css">
	.st0{fill:#FE3B1F;}
</style>
<g id="c">
	<path class="st0" d="M101.7,80.1l4.2-50.3c-1.9,0-8.9-2.3-9-1.2L96,40.4C89.9,32.3,79.4,27.8,70.3,28C52,28.3,33.4,43.2,30.8,63.3
		C18.7,69.7,9.7,79.7,9.7,79.7l4-77.9c-1.9,0-9.6-2.3-9.6-1.2c0,0-3.1,81.8-4.2,93.3c2,0.3,7.7,2.7,8.2,1.8
		C13.6,85.8,24,78,30.9,73.6c0.1,0.4,0.1,0.9,0.2,1.3c2.3,12.7,13.2,21,25.8,21.7C74,97.4,87,86.5,93.5,75.1l-1.2,18.7
		c2.4,0.3,7.8,3,8.5,1.5c6.2-14,29.5-25.7,29.5-25.7c1.8-0.7-3-5-4.3-7C112.3,68.9,101.7,80,101.7,80.1z M62.5,87.6
		c-9,0.9-20.7-3.6-22.5-16.4c-2.4-17.8,14.3-35.7,31.1-34.3C82,37.7,90.4,45.3,94,54.1C91.6,62.8,80.1,85.8,62.5,87.6z"/>
	<path class="st0" d="M285.6,26.8c-12,0.1-25.2,7.9-31.5,18.6l0.9-16c-2.7-0.3-8.8-2-8.8-1.1l-2.5,37.6
		c-11,11.6-22.4,18.4-42.6,20.2c-11.8,1.1-27.3-5.2-29.2-16.4C169,51.8,185.7,39.2,201,36c17.2-3.6,27.9,6.1,20.1,11.8
		c-1.2,0.9-2.7,1.5-4.4,1.8s0,4.7-0.4,8.6c2.6-0.1,5.2-0.5,7.4-1.5c9.3-4.2,13.1-14.1,6.3-22.2c-6.5-7.7-18.8-8.6-28.7-7.3
		c-23.4,3.4-43.5,22.3-39,45.1c2.4,12.7,14.5,21.4,29.6,22.9c20.8,2.1,39.1-6.3,51.1-16.5l-1,14.7c1.4,0.1,9,3.2,9.1,1.5l2.6-28.5
		c3.2-17.4,17.4-27.7,26.2-29.9c19.4-4.7,23.7,14.1,12.8,17.2c-0.7,0.1-6.1,0.8-8.8-5c-0.8-1.6-3.6,5-6.5,7.4
		c2.7,4.8,10.9,7.4,17.6,5.8c12.1-3,15.9-16.5,9.8-25.6C300.5,29.9,293.3,26.7,285.6,26.8L285.6,26.8z"/>
	<path class="st0" d="M320.7,13.9c3.8,0,6.9-3,6.9-6.7s-3.1-6.9-6.9-6.9S314,3.4,314,7.2S316.9,13.9,320.7,13.9z"/>
	<path class="st0" d="M378.4,18.7L388,1.5c-2.4-0.4-8.8-2.2-9.3-1.2l-9.6,17C371.6,17.8,377.6,20.2,378.4,18.7z"/>
	<path class="st0" d="M487.3,62.2c-10.8,17.9-28.7,27.2-46.7,25.2c-8.6-0.9-18.7-5.7-20-18.5c24.7-9.2,52-9.9,52-9.9
		c3.4-10.5-1.1-31.5-22.9-32.2c-18.7-0.5-36.3,14.7-38.4,35.1c-0.2,2.2-0.3,4.3-0.2,6.3c-10,14.2-23.8,20.7-40.5,18.9
		c-8.7-0.9-18.9-5.7-20.2-18.2c24.9-9.2,52.2-9.9,52.2-9.9c3.5-10.5-0.9-31-23-31.9c-19-0.8-36.3,14.9-38.5,34.9
		c-0.1,0.6-0.1,1.2-0.1,1.9C328.5,70.2,319.2,80,319.2,80l4.2-50.3c-1.9,0-8.9-2.3-9-1.2L310,93.8c2.4,0.3,7.8,3,8.5,1.5
		c4.1-9.2,15.6-17.5,23-22c3.1,16.3,17.8,23.7,35.5,23c14.1-0.6,26.8-6.5,36.4-17.1c5.1,12.5,18.3,18.2,33.7,17.4
		c18.2-0.9,34.2-10.1,45.4-26.8C493.4,68,488.5,63.8,487.3,62.2L487.3,62.2z M449.1,35.1c10.9,0.5,16,8.3,15.3,15.8
		c0,0-20.8-0.3-43.3,8.2C424.2,43.8,436.8,34.5,449.1,35.1L449.1,35.1z M379,35.4c11,0.5,16.1,8.3,15.5,15.5c0,0-20.8-0.3-43.6,8.2
		C354,43.8,366.8,34.8,379,35.4z"/>
</g>
</svg>
