<?xml version="1.0" encoding="utf-8"?>
<!-- Generator: Adobe Illustrator 22.0.1, SVG Export Plug-In . SVG Version: 6.00 Build 0)  -->
<svg version="1.0" id="Calque_1" xmlns="http://www.w3.org/2000/svg" xmlns:xlink="http://www.w3.org/1999/xlink" x="0px" y="0px"
	 viewBox="0 0 477.3 132.7" style="enable-background:new 0 0 477.3 132.7;" xml:space="preserve">
<g>
	<path d="M97.6,93.8v5c-10.4,0.3-17.7,0.7-24.3,1.3C70.5,94.8,71,87.4,71,79v-31c0-10.2-3.5-13-10.7-13c-6.6,0-14.2,3.8-20,6.8
		C39.6,55,40,70,40.5,84.9c0.8,5.4,3.1,7.8,9.6,9.4v4.9c-3.1-0.3-12.7-0.5-17.5-0.5c-5.6,0-14.7,0.2-17.8,0.5v-4.9
		c6.1-1.7,8.7-3.8,9.6-8.7c0.5-14.8,0.5-29.9-0.3-44.9c-0.7-4-2.8-6.6-7.6-6.6h-3.8l-0.8-4.5l24.1-7.9c1.5,2.5,3.8,7.3,4.5,13.9
		C52.2,27,62.4,22.4,68.5,22.4c13.2,0,18.1,7.6,18.1,19.8v33.3C86.7,87,87.8,92.6,97.6,93.8z"/>
	<path d="M134.4,100.7c-21.9,0-31.7-15.5-32.5-33.5c-1.2-24.6,17.2-44.9,40.3-44.9c22.4,0,32.5,14.5,33.3,33.7
		C176.6,80.9,159.3,100.7,134.4,100.7z M116.4,58c1,20.6,11.1,33,25.2,33c11.7,0,19.8-9.7,19.1-26.1c-0.8-18.8-10.9-33-25.6-33
		C123,31.9,115.7,43.8,116.4,58z"/>
	<path d="M247.5,84.4l2.8,5c-6.6,5.6-16.7,11.4-29,11.4c-27.7,0-37.1-21.3-37.3-37.1c-0.2-23.1,17-41.2,37.8-41.2
		c17.2,0,28.9,14,30,32.8l-51.6,10.6c3.1,13.2,12.5,23.8,28.4,23.8C234.5,89.5,240.8,87.9,247.5,84.4z M199,56c0,1,0,2,0.2,3
		l34.2-7.6c-1.6-12.7-7.9-19.5-16.2-19.5C202,31.9,198.9,45.6,199,56z"/>
	<path d="M290.8,22.4c12.7,0,20,4.6,24.3,12.7l-14.2,6.6c-3.3-6.6-7.6-10.6-15.2-10.6c-4,0-10.4,1.8-10.4,8.7c0,4.8,2,9.6,14.7,12.9
		c16,4.1,30,8.2,30,22.6c0,14.2-14.7,25.4-31.5,25.4c-23.3,0-28.2-12.5-30.2-18.6l14.2-6.6c2,4.6,7.9,16.3,22.1,16.3
		c4.1,0,12.7-2.3,12.7-10.9c0-8.4-11.7-11.4-21-14.2c-14.7-4.5-23.4-8.7-23.4-21.4C262.9,33.4,274.1,22.4,290.8,22.4z"/>
	<path d="M400,24.3v4.9c-6.6,1.2-8.7,5.1-11.9,13.9c-5.3,14.7-15.3,38.9-21.4,50.2c-14,25.7-23.9,29.4-32.3,29.4
		c-9.7,0-15.3-8.4-16.8-14l14.2-6.6c1.7,4.1,5,8.4,9.6,8.4c3.8,0,7.3-2.1,15.7-15.2c-9.4-16.3-17.3-36-23.4-54.1
		c-3.1-9.2-7.1-11.1-11.1-11.9v-4.9c4.6,0.3,12,0.5,18,0.5c3.5,0,11.1-0.2,16.3-0.5v4.9c-8.1,0.7-9.4,4.6-6.3,14.5
		c4.1,12.7,9.6,24.7,14.8,35.3c6.1-13.2,11.1-24.9,14-34.6c3.8-11.9-2.3-14.7-7.6-15.2v-4.9c3.6,0.2,9.9,0.3,14.7,0.3
		C390.8,24.7,396.4,24.5,400,24.3z"/>
	<path d="M466.2,93.8v5c-5.8,0.2-19,0.7-22.8,1.3c-1.6-2.3-2.6-6.3-3.1-10.4c-7.1,6.4-15.7,11.1-24.6,11.1
		c-14,0-19.8-10.2-19.8-17.7c0-20.6,26.7-26.1,43.7-30.9v-5.3c0-11.4-4.6-14.2-10.7-14.2c-5.8,0-15.5,3-23.4,9.7l-3.1-4.8
		c7.6-8.1,20.6-15.3,31.5-15.3c13.5,0,21.4,5.8,21.4,21.1v35.1C455.3,87.9,456.9,92.8,466.2,93.8z M439.6,84.1v-2.6V57.5
		c-11.4,3.6-27.7,8.9-27.7,22.3c0,5.1,4.8,10.7,12.2,10.7C429.4,90.5,435.1,87.7,439.6,84.1z"/>
</g>
</svg>
