<?xml version="1.0" encoding="utf-8"?>
<!-- Generator: $$$/GeneralStr/196=Adobe Illustrator 27.6.0, SVG Export Plug-In . SVG Version: 6.00 Build 0)  -->
<svg version="1.1" id="RENNES_MÉTROPOLE" xmlns="http://www.w3.org/2000/svg" xmlns:xlink="http://www.w3.org/1999/xlink" x="0px"
	 y="0px" viewBox="0 0 298.6 63.1" style="enable-background:new 0 0 298.6 63.1;" xml:space="preserve">
<style type="text/css">
	.st0{fill:#1D1D1B;}
</style>
<path class="st0" d="M194.8,20.6c1.3,4.4,5,7.1,10.9,7.1c6,0,10.1-2.8,10.1-7.9c0-4.2-2.6-6.8-9.9-7.8c-4.1-0.6-5.5-1.6-5.5-3.6
	c0-2.2,1.8-3.2,4.5-3.2c3.3,0,5.1,1.5,5.8,4.4l4.2-1.2c-1.1-4.6-4.5-7.2-10.1-7.2c-5.5,0-9.1,2.6-9.1,7.5c0,3.5,1.8,6.4,9,7.4
	c4.7,0.6,6.2,1.7,6.2,3.9c0,2.4-1.9,3.6-5.1,3.6c-3.8,0-6-1.7-7.1-4.7L194.8,20.6z M173.8,12.3c0.5-4,2.9-6.8,7.1-6.8
	c3.9,0,6.5,2.4,6.5,6.8H173.8z M192,13.4c0-7.9-4.4-12.1-11.1-12.1c-7.6,0-11.9,5.3-11.9,13.2c0,8,4.3,13.2,12.1,13.2
	c5.6,0,9.2-2.7,10.5-7l-4.3-1.4c-0.9,3.2-3.5,4.1-6.2,4.1c-4.9,0-7.1-3.1-7.4-7.2H192V13.4z M147.4,27.2V8.6
	c2.5,2.4,9.6,12.8,12.4,18.6h4.6V1.7h-4.5v17.1c-3.3-5.9-7.9-12-12.8-17.1h-4.3v25.5C142.8,27.2,147.4,27.2,147.4,27.2z M119.9,27.2
	V8.6c2.5,2.4,9.6,12.8,12.4,18.6h4.6V1.7h-4.5v17.1c-3.3-5.9-7.9-12-12.7-17.1h-4.3v25.5C115.4,27.2,119.9,27.2,119.9,27.2z
	 M92.5,12.3c0.5-4,2.9-6.8,7.1-6.8c3.9,0,6.5,2.4,6.5,6.8H92.5z M110.7,13.4c0-7.9-4.4-12.1-11.1-12.1c-7.6,0-11.9,5.3-11.9,13.2
	c0,8,4.3,13.2,12.1,13.2c5.6,0,9.2-2.7,10.5-7l-4.3-1.4c-0.9,3.2-3.5,4.1-6.2,4.1c-4.9,0-7.1-3.1-7.4-7.2h18.3L110.7,13.4
	L110.7,13.4z M74,5.9c3.6,0,5.5,1.7,5.5,4.6c0,2.6-1.6,4.4-5,4.4h-6.1v-9H74z M78.4,18.1c4.5-1.5,5.9-4.9,5.9-8.2
	c0-5.2-3.6-8.3-9.8-8.3H63.9v25.5h4.5v-8.3h4.7h0.5l1.7,2.8c3,4.9,4.2,5.7,9,5.7V23c-2.5,0-3.4-0.8-5.3-3.9L78.4,18.1z"/>
<path class="st0" d="M278.6,46.3c0.5-4,2.9-6.8,7.1-6.8c3.9,0,6.5,2.4,6.5,6.8H278.6z M296.9,47.5c0-7.9-4.4-12.1-11.1-12.1
	c-7.6,0-11.9,5.3-11.9,13.2c0,8,4.3,13.2,12.1,13.2c5.6,0,9.2-2.7,10.5-7l-4.3-1.4c-0.9,3.2-3.5,4.1-6.2,4.1c-4.9,0-7.1-3.1-7.4-7.2
	h18.3V47.5z M259.6,35.8h-4.5v25.5H272v-4.2h-12.4V35.8z M237.8,57.4c-4.8,0-8.1-3.5-8.1-8.9c0-5.2,3.3-8.9,8.1-8.9
	c4.8,0,8.1,3.7,8.1,8.9C245.9,53.9,242.6,57.4,237.8,57.4 M237.8,61.7c7.6,0,12.8-5.2,12.8-13.2c0-7.8-5.1-13.2-12.8-13.2
	S225,40.7,225,48.5C225,56.5,230.2,61.7,237.8,61.7 M205.9,49.4V40h5.9c3.6,0,5.6,1.6,5.6,4.7s-2,4.7-5.6,4.7
	C211.8,49.4,205.9,49.4,205.9,49.4z M201.4,35.8v25.5h4.5v-7.7h5.5c7.5,0,10.7-3.6,10.7-8.9s-3.2-8.9-10.7-8.9
	C211.4,35.8,201.4,35.8,201.4,35.8z M184.1,57.4c-4.8,0-8.1-3.5-8.1-8.9c0-5.2,3.3-8.9,8.1-8.9s8.1,3.7,8.1,8.9
	C192.2,53.9,188.9,57.4,184.1,57.4 M184.1,61.7c7.6,0,12.8-5.2,12.8-13.2c0-7.8-5.1-13.2-12.8-13.2s-12.8,5.4-12.8,13.2
	C171.3,56.5,176.4,61.7,184.1,61.7 M157.7,40c3.6,0,5.5,1.7,5.5,4.6c0,2.6-1.6,4.4-5,4.4h-6.1v-9H157.7z M162.1,52.2
	c4.5-1.5,5.9-4.9,5.9-8.2c0-5.2-3.6-8.3-9.8-8.3h-10.6v25.5h4.5v-8.3h4.7h0.5l1.7,2.8c3,4.9,4.2,5.7,9,5.7v-4.3
	c-2.5,0-3.4-0.8-5.3-3.9L162.1,52.2z M134.9,61.3V40h9v-4.2h-22.2V40h8.7v21.3H134.9z M101.9,46.3c0.5-4,2.9-6.8,7.1-6.8
	c3.9,0,6.5,2.4,6.5,6.8H101.9z M120.1,47.5c0-7.9-4.4-12.1-11.1-12.1c-7.6,0-11.9,5.3-11.9,13.2c0,8,4.3,13.2,12.1,13.2
	c5.6,0,9.2-2.7,10.5-7l-4.3-1.4c-0.9,3.2-3.5,4.1-6.2,4.1c-4.9,0-7.1-3.1-7.4-7.2h18.3V47.5z M114.1,27.4l-9.1,3.2l1.1,3.1l9.1-3.1
	L114.1,27.4z M90.9,35.8h-4.4c-2.9,5.9-5.5,11.8-7.7,18.6h-0.3c-2.1-6.8-4.8-12.7-7.6-18.6h-4.4l-3.1,25.5h4.5l2-17.6
	c2.4,5.4,4.5,10.9,6.3,16.8h5c1.8-5.8,3.9-11.4,6.3-16.8l2,17.6H94L90.9,35.8z"/>
<path class="st0" d="M30.4,47.1c-3.7-5.3-6.2-6.9-11.4-7.7v4.9c3.6,0.5,5.3,2.4,7.6,5.7c6.2,8.9,9.7,12.5,22.3,11.9v-4.7
	C39.2,57.8,35.9,54.8,30.4,47.1 M33.5,44.7c5.3,7.3,8.1,9.8,15.4,9.2v-4.7c-5.4,0.6-8-2.1-11.7-7.4c-4.6-6.4-9.7-9.9-18.3-10.4v4.8
	C25.1,36.4,29.1,38.5,33.5,44.7 M1.3,61.2h4.9V20.3c-1.5,0.5-3.4,1.1-4.9,1.8C1.3,22.1,1.3,61.2,1.3,61.2z M14.9,18.1
	c-1.5,0.2-3.4,0.5-4.9,0.9v42.2h4.9V18.1z M40.9,22.8c0-8.1-6.4-13.5-19-13.5c-6.6,0-14.5,1.5-20.6,4v5C6.9,15.8,15,14,21.9,14
	C31,14,36,17.1,36,22.9c0,3.4-1.7,6.4-4.8,8.3c1.3,0.7,2.7,1.8,3.8,2.8C38.8,31.6,40.9,27.4,40.9,22.8 M22.5,0.7
	c-7,0-14.2,1.5-21.1,3.8v5C9,6.7,16.2,5.4,22.5,5.4c14.3,0,22.7,6.5,22.7,16.8c0,6-2.6,11.1-7.5,14.5c1,1.1,2.1,2.4,3,3.5
	c6.1-4.2,9.4-10.9,9.4-18C50,9.3,39.5,0.7,22.5,0.7"/>
</svg>
