<?xml version="1.0" encoding="utf-8"?>
<!-- Generator: $$$/GeneralStr/196=Adobe Illustrator 27.6.0, SVG Export Plug-In . SVG Version: 6.00 Build 0)  -->
<svg version="1.1" id="SvgjsSvg1000" xmlns:svgjs="http://svgjs.com/svgjs"
	 xmlns="http://www.w3.org/2000/svg" xmlns:xlink="http://www.w3.org/1999/xlink" x="0px" y="0px" viewBox="0 0 1920 1920"
	 style="enable-background:new 0 0 1920 1920;" xml:space="preserve">
<style type="text/css">
	.st0{fill:#B7FF00;}
</style>
<rect class="st0" width="1920" height="1920"/>
<g>
	<path d="M767.4,414.1c0-118.9,86.9-205.6,207.3-205.6c118.9,0,207.3,86.9,207.3,205.6c0,124.9-85.2,214-207.3,214
		S767.4,539.1,767.4,414.1z M1116,414.1c0-89.1-57.8-150.7-141.6-150.7S832.9,325,832.9,414.1c0,95.1,57.8,159.1,141.6,159.1
		S1116,509.4,1116,414.1z"/>
	<path d="M1676.7,566.5v50.3h-118.9v-64c-22.1,45.7-70.1,73.9-127.1,73.9c-88.4,0-136.3-60.9-136.3-147.1V270.9h-57.8v-50.1h118.9
		v250.6c0,59.5,35.9,99.7,92.9,99.7c61.6,0,109.8-47.9,109.8-108.1V270.9h-57.8v-50.1h118.9v345.7H1676.7L1676.7,566.5z"/>
	<path d="M698.1,1042.5v50.3h-119V1028c-27.4,45-78.5,76.1-143.2,76.1c-106.7,0-183.4-83.8-183.4-213.3
		c0-124.2,86.2-206.3,189.7-206.3c60.9,0,111.9,32.7,137,79.9V592.3h-57.8V542h118.9v500.5H698.1z M583,891
		c0-85.9-57.8-151.7-131.7-151.7c-77,0-132.4,62.4-132.4,150.7c0,92.9,53.2,159.9,130.2,159.9C526.7,1050.2,583,984,583,891z"/>
	<path d="M761.9,890.1c0-118.9,86.9-205.6,207.3-205.6c118.9,0,207.3,86.9,207.3,205.6c0,124.9-85.2,214-207.3,214
		S761.9,1015,761.9,890.1z M1110.7,890.1c0-89.1-57.8-150.7-141.6-150.7S827.6,801,827.6,890.1c0,95.1,57.8,159.1,141.6,159.1
		C1052.9,1049.4,1110.7,985.4,1110.7,890.1z"/>
	<path d="M690.4,1367c0,125.7-80.6,213.3-193.6,213.3c-60.9,0-108.8-31.3-134.8-75.4v156.2h68.6v50.3H243.3v-50.3h57.8V1223h-57.8
		v-50.3h118.9v67.9c25-42.6,73.2-79.9,143.2-79.9C615,1160.7,690.4,1248.1,690.4,1367z M624.2,1369.1c0-91.5-53.2-154.6-131.7-154.6
		c-75.4,0-134.1,66.2-134.1,154.6c0,92.9,55.6,157,134.1,157C568.5,1526.1,624.2,1463.8,624.2,1369.1z"/>
	<path d="M768.1,1366.3c0-118.9,86.9-205.6,207.3-205.6c118.9,0,207.3,86.9,207.3,205.6c0,124.9-85.2,214-207.3,214
		S768.1,1491.2,768.1,1366.3z M1117,1366.3c0-89.1-57.8-150.7-141.6-150.7s-141.6,61.6-141.6,150.7c0,95.1,57.8,159.1,141.6,159.1
		C1058.9,1525.4,1117,1461.4,1117,1366.3z"/>
</g>
</svg>
