<?xml version="1.0" encoding="utf-8"?>
<!-- Generator: $$$/GeneralStr/196=Adobe Illustrator 27.6.0, SVG Export Plug-In . SVG Version: 6.00 Build 0)  -->
<svg version="1.1" id="Calque_1" xmlns="http://www.w3.org/2000/svg" xmlns:xlink="http://www.w3.org/1999/xlink" x="0px" y="0px"
	 viewBox="0 0 2137.8 635.3" style="enable-background:new 0 0 2137.8 635.3;" xml:space="preserve">
<g>
	<path d="M219.7,87.4C219.7,38,255.8,2,305.8,2c49.4,0,86.1,36.1,86.1,85.4c0,51.9-35.4,88.9-86.1,88.9S219.7,139.3,219.7,87.4z
		 M364.5,87.4c0-37-24-62.6-58.8-62.6s-58.8,25.6-58.8,62.6c0,39.5,24,66.1,58.8,66.1S364.5,127,364.5,87.4z"/>
	<path d="M597.4,150.7v20.9H548V145c-9.2,19-29.1,30.7-52.8,30.7c-36.7,0-56.6-25.3-56.6-61.1V27.9h-24V7.1H464v104.1
		c0,24.7,14.9,41.4,38.6,41.4c25.6,0,45.6-19.9,45.6-44.9V27.9h-24V7.1h49.4v143.6L597.4,150.7L597.4,150.7z"/>
	<path d="M190.9,348.4v20.9h-49.4v-26.9C130.1,361.1,108.9,374,82,374c-44.3,0-76.2-34.8-76.2-88.6c0-51.6,35.8-85.7,78.8-85.7
		c25.3,0,46.5,13.6,56.9,33.2v-71.5h-24v-20.9h49.4v207.9H190.9z M143.1,285.5c0-35.7-24-63-54.7-63c-32,0-55,25.9-55,62.6
		c0,38.6,22.1,66.4,54.1,66.4C119.7,351.6,143.1,324.1,143.1,285.5z"/>
	<path d="M217.4,285.1c0-49.4,36.1-85.4,86.1-85.4c49.4,0,86.1,36.1,86.1,85.4c0,51.9-35.4,88.9-86.1,88.9S217.4,337,217.4,285.1z
		 M362.3,285.1c0-37-24-62.6-58.8-62.6s-58.8,25.6-58.8,62.6c0,39.5,24,66.1,58.8,66.1C338.3,351.3,362.3,324.7,362.3,285.1z"/>
	<path d="M187.7,483.2c0,52.2-33.5,88.6-80.4,88.6c-25.3,0-45.2-13-56-31.3v64.9h28.5v20.9H2v-20.9h24v-182H2v-20.9h49.4v28.2
		c10.4-17.7,30.4-33.2,59.5-33.2C156.4,397.5,187.7,433.8,187.7,483.2z M160.2,484.1c0-38-22.1-64.2-54.7-64.2
		c-31.3,0-55.7,27.5-55.7,64.2c0,38.6,23.1,65.2,55.7,65.2C137.1,549.3,160.2,523.4,160.2,484.1z"/>
	<path d="M220,482.9c0-49.4,36.1-85.4,86.1-85.4c49.4,0,86.1,36.1,86.1,85.4c0,51.9-35.4,88.9-86.1,88.9S220,534.8,220,482.9z
		 M364.9,482.9c0-37-24-62.6-58.8-62.6s-58.8,25.6-58.8,62.6c0,39.5,24,66.1,58.8,66.1C340.8,549,364.9,522.4,364.9,482.9z"/>
</g>
<path d="M830.3,104.4c0-54.5,39.5-101.8,89.5-101.8c38.3,0,63.7,28,63.7,66.3c0,53.8-39.7,104.1-89.8,104.1
	C855.2,173.1,830.3,143.7,830.3,104.4z M970.6,70.4c0-33.6-19-56.6-51.7-56.6c-43,0-75.7,43.2-75.7,89.5c0,33.8,18.8,58.8,51.2,58.8
	C937.5,162,970.6,116,970.6,70.4z"/>
<path d="M1119.1,160.4l-1.6,9.6H1086l4.2-24.2c-8.9,14.6-23.7,27-42.3,27c-19.3,0-32-15-32-33.1c0-3.5,0.5-7.3,0.9-10.6l12-67.7
	h-20.2l1.6-9.6h31.7l-13.6,76.4c-0.5,2.8-0.9,6.3-0.9,8.9c0,15,8.7,25.1,24.2,25.1c19,0,40-23.7,43-41.1l12.2-69.3h11.3l-19.3,108.6
	H1119.1z"/>
<path d="M1250.3,66.4c0,37.8-27.5,74.3-66.7,104.6h-10.8l-12.5-109.5h-20.7l1.6-9.6h29.4l12,107.9c30.5-25.6,56.9-58.3,56.9-92.6
	c0-1.6,0-3.5-0.2-5.6h-22.1l1.6-9.6h30.1C1249.8,56.3,1250.3,61.9,1250.3,66.4z"/>
<path d="M1360.9,53l-6.1,11c-3.5-1.6-8.7-3.1-13.6-3.1c-20.2,0-38.1,23.7-41.8,45.4l-11.3,63.7h-11.3l19-108.6h-20.2l1.6-9.6h31.5
	l-4.9,29.1c8.2-18.1,23.3-32,40.4-32C1350.6,49,1356.5,50.6,1360.9,53z"/>
<path d="M1366.8,121.4c0-39,27-73.1,64.2-73.1c28.4,0,47.9,20.7,47.9,50.8c0,39-27.5,74.3-64.2,74.3
	C1385.6,173.3,1366.8,151.9,1366.8,121.4z M1466.9,99.7c0-24.7-14.8-40.9-36.2-40.9c-29.8,0-51.9,29.8-51.9,62
	c0,24.4,14.1,41.8,36,41.8C1444.1,162.7,1466.9,131.7,1466.9,99.7z"/>
<path d="M1523.3,160.4h20.2l-1.6,9.6h-31.5l19-108.6h-20.2l1.6-9.6h31.7L1523.3,160.4z M1551.8,15.4c0,5.6-4.5,10.1-10.1,10.1
	c-5.6,0-10.1-4.5-10.1-10.1s4.5-10.1,10.1-10.1C1547.3,5.3,1551.8,9.7,1551.8,15.4z"/>
<path d="M1661.7,53l-6.1,11c-3.5-1.6-8.7-3.1-13.6-3.1c-20.2,0-38.1,23.7-41.8,45.4l-11.3,63.7h-11.3l19-108.6h-20.2l1.6-9.6h31.5
	l-4.9,29.1c8.2-18.1,23.3-32,40.4-32C1651.4,49,1657.3,50.6,1661.7,53z"/>
<path d="M946.2,207.7H926l1.6-9.6h31.5l-28.2,160.3h20.2l-1.6,9.6H918l4.9-27.5c-9.2,17.2-25.6,30.5-47.9,30.5
	c-23.5,0-40.7-22.1-40.7-50.1c0-40.7,27.5-74.5,61.3-74.5c21.6,0,34.5,12.7,38.5,29.8L946.2,207.7z M930.4,296.1
	c0-23.3-14.6-39-35-39c-26.3,0-49.1,29.8-49.1,62.7c0,23.5,12,40.7,31.3,40.7C906,360.5,930.4,328.3,930.4,296.1z"/>
<path d="M994.4,308.3c-0.5,3.1-0.7,6.1-0.7,9.4c0,24,13.4,42.5,34.5,42.5c16,0,32.7-9.4,43.5-22.3l7.3,7.3
	c-12,15.3-31.3,25.6-51.5,25.6c-28,0-45.8-22.6-45.8-52.6c0-38.8,29.1-71.7,63.7-71.7c26.3,0,42.8,20,42.8,43.2
	c0,6.1-1.2,12.9-2.6,18.6H994.4z M996.2,298.7h79c0.7-2.6,0.9-6.6,0.9-9.4c0-17.9-12.7-32.7-31.5-32.4
	C1022.6,256.9,1003.3,274.7,996.2,298.7z"/>
<path d="M1285.5,207.7h-20.2l1.6-9.6h31.5l-28.2,160.3h20.2l-1.6,9.6h-31.5l4.9-27.5c-9.2,17.2-25.6,30.5-47.9,30.5
	c-23.5,0-40.7-22.1-40.7-50.1c0-40.7,27.5-74.5,61.3-74.5c21.6,0,34.5,12.7,38.5,29.8L1285.5,207.7z M1269.8,296.1
	c0-23.3-14.6-39-35-39c-26.3,0-49.1,29.8-49.1,62.7c0,23.5,12,40.7,31.3,40.7C1245.3,360.5,1269.8,328.3,1269.8,296.1z"/>
<path d="M1321,319.4c0-39,27-73.1,64.2-73.1c28.4,0,47.9,20.7,47.9,50.8c0,39-27.5,74.3-64.2,74.3
	C1339.8,371.3,1321,349.9,1321,319.4z M1421.1,297.7c0-24.7-14.8-40.9-36.2-40.9c-29.8,0-51.9,29.8-51.9,62
	c0,24.4,14.1,41.8,36,41.8C1398.3,360.7,1421.1,329.7,1421.1,297.7z"/>
<path d="M1578.1,358.4l-1.6,9.6H1545l13.4-76.8c0.5-2.6,0.7-5.4,0.7-8c0-15.5-9.6-25.6-27.3-25.6c-19,0-40,19.3-43.5,39.2
	l-12.5,71.2h-11.3l19-108.6h-20.2l1.6-9.6h31.7l-4,21.9c9.2-14.6,24-24.7,43-24.7c20.7,0,35,14.1,35,33.8c0,3.1-0.2,6.1-0.7,9.2
	l-12.2,68.4H1578.1z"/>
<path d="M1725,358.4l-1.6,9.6h-31.5l13.4-76.8c0.5-2.6,0.7-5.4,0.7-8c0-15.5-9.6-25.6-27.3-25.6c-19,0-40,19.3-43.5,39.2l-12.5,71.2
	h-11.3l19-108.6h-20.2l1.6-9.6h31.7l-4,21.9c9.2-14.6,24-24.7,43-24.7c20.7,0,35,14.1,35,33.8c0,3.1-0.2,6.1-0.7,9.2l-12.2,68.4
	H1725z"/>
<path d="M1767.5,308.3c-0.5,3.1-0.7,6.1-0.7,9.4c0,24,13.4,42.5,34.5,42.5c16,0,32.7-9.4,43.5-22.3l7.3,7.3
	c-12,15.3-31.3,25.6-51.5,25.6c-28,0-45.8-22.6-45.8-52.6c0-38.8,29.1-71.7,63.7-71.7c26.3,0,42.8,20,42.8,43.2
	c0,6.1-1.2,12.9-2.6,18.6H1767.5z M1769.4,298.7h79c0.7-2.6,0.9-6.6,0.9-9.4c0-17.9-12.7-32.7-31.5-32.4
	C1795.7,256.9,1776.4,274.7,1769.4,298.7z M1831.2,199h15l-26.1,30.8h-11.5L1831.2,199z"/>
<path d="M1901.7,308.3c-0.5,3.1-0.7,6.1-0.7,9.4c0,24,13.4,42.5,34.5,42.5c16,0,32.7-9.4,43.5-22.3l7.3,7.3
	c-12,15.3-31.3,25.6-51.5,25.6c-28,0-45.8-22.6-45.8-52.6c0-38.8,29.1-71.7,63.7-71.7c26.3,0,42.8,20,42.8,43.2
	c0,6.1-1.2,12.9-2.6,18.6H1901.7z M1903.6,298.7h79c0.7-2.6,0.9-6.6,0.9-9.4c0-17.9-12.7-32.7-31.5-32.4
	C1929.9,256.9,1910.6,274.7,1903.6,298.7z"/>
<path d="M2090.9,281.8l3.3-18.6c-7.3-3.8-16.7-6.3-26.3-6.3c-14.3,0-26.8,8.2-26.8,21.1c0,24.2,56.9,21.2,56.9,55.9
	c0,22.1-19.3,36.9-41.8,36.9c-15.3,0-29.6-3.5-41.4-8.7l5.2-29.6h10.3l-3.8,21.6c8.2,3.8,18.6,6.6,29.8,6.6
	c16.4,0,30.1-10.8,30.1-25.8c0-26.6-56.6-24-56.6-56.2c0-19,17.6-31.7,38.1-31.7c14.1,0,27.5,3.8,38.1,8.9l-4.7,25.9H2090.9z"/>
<path d="M925.1,444.5c24.9,0,41.8,22.6,41.8,50.1c0,39.7-27,74.5-62.5,74.5c-20.9,0-33.8-13.2-38.1-30.8L853.9,610h-11.3l26.8-152.8
	h-20.4l1.6-9.4h31.7l-4.5,26.3C887.2,457.4,903,444.5,925.1,444.5z M954.9,495c0-23-12.5-40.2-32.9-40
	c-27.7,0.2-51.9,31.5-51.9,63.7c0,22.8,13.9,39.7,34.5,39.7C932.8,558.5,954.9,527.5,954.9,495z"/>
<path d="M996,517.4c0-39,27-73.1,64.2-73.1c28.4,0,47.9,20.7,47.9,50.8c0,39-27.5,74.3-64.2,74.3C1014.8,569.3,996,547.9,996,517.4z
	 M1096.1,495.7c0-24.7-14.8-40.9-36.2-40.9c-29.8,0-51.9,29.8-51.9,62c0,24.4,14.1,41.8,36,41.8
	C1073.3,558.7,1096.1,527.7,1096.1,495.7z"/>
<path d="M1143.6,542.7c0-2.4,0.2-5.4,0.7-8.2l13.6-77.1h-20.2l1.6-9.6h20.2l4.9-28h11.3l-4.9,28h27.5l-1.6,9.6h-27.5l-13.6,76.8
	c-0.2,2.1-0.5,4.2-0.5,6.3c0,9.4,5.4,15.7,14.3,15.7c4,0,8.7-1.2,12.2-2.6l2.1,9.9c-4.7,1.9-10.8,2.8-16.2,2.8
	C1153.7,566.5,1143.6,556.8,1143.6,542.7z"/>
<path d="M1225.6,506.3c-0.5,3.1-0.7,6.1-0.7,9.4c0,24,13.4,42.5,34.5,42.5c16,0,32.7-9.4,43.5-22.3l7.3,7.3
	c-12,15.3-31.3,25.6-51.5,25.6c-28,0-45.8-22.6-45.8-52.6c0-38.8,29.1-71.7,63.7-71.7c26.3,0,42.8,20,42.8,43.2
	c0,6.1-1.2,12.9-2.6,18.6H1225.6z M1227.5,496.7h79c0.7-2.6,0.9-6.6,0.9-9.4c0-17.9-12.7-32.7-31.5-32.4
	C1253.8,454.9,1234.5,472.7,1227.5,496.7z"/>
<path d="M1462.7,556.4l-1.6,9.6h-31.5l13.4-76.8c0.5-2.6,0.7-5.4,0.7-8c0-15.5-9.6-25.6-27.3-25.6c-19,0-40,19.3-43.5,39.2
	l-12.5,71.2h-11.3l19-108.6H1348l1.6-9.6h31.7l-4,21.9c9.2-14.6,24-24.7,43-24.7c20.7,0,35,14.1,35,33.8c0,3.1-0.2,6.1-0.7,9.2
	l-12.2,68.4H1462.7z"/>
<path d="M1500.1,542.7c0-2.4,0.2-5.4,0.7-8.2l13.6-77.1h-20.2l1.6-9.6h20.2l4.9-28h11.3l-4.9,28h27.5l-1.6,9.6h-27.5l-13.6,76.8
	c-0.2,2.1-0.5,4.2-0.5,6.3c0,9.4,5.4,15.7,14.3,15.7c4,0,8.7-1.2,12.2-2.6l2.1,9.9c-4.7,1.9-10.8,2.8-16.2,2.8
	C1510.2,566.5,1500.1,556.8,1500.1,542.7z"/>
<path d="M1585.9,556.4h20.2l-1.6,9.6h-31.5l19-108.6h-20.2l1.6-9.6h31.7L1585.9,556.4z M1614.3,411.4c0,5.6-4.5,10.1-10.1,10.1
	c-5.6,0-10.1-4.5-10.1-10.1c0-5.6,4.5-10.1,10.1-10.1C1609.8,401.3,1614.3,405.7,1614.3,411.4z"/>
<path d="M1649.3,506.3c-0.5,3.1-0.7,6.1-0.7,9.4c0,24,13.4,42.5,34.5,42.5c16,0,32.7-9.4,43.5-22.3l7.3,7.3
	c-12,15.3-31.3,25.6-51.5,25.6c-28,0-45.8-22.6-45.8-52.6c0-38.8,29.1-71.7,63.7-71.7c26.3,0,42.8,20,42.8,43.2
	c0,6.1-1.2,12.9-2.6,18.6H1649.3z M1651.2,496.7h79c0.7-2.6,0.9-6.6,0.9-9.4c0-17.9-12.7-32.7-31.5-32.4
	C1677.5,454.9,1658.2,472.7,1651.2,496.7z"/>
<path d="M1784.2,556.4h20.2l-1.6,9.6h-31.5l28.2-160.3h-20.2l1.6-9.6h31.5L1784.2,556.4z"/>
<path d="M1849.8,556.4h20.2l-1.6,9.6h-31.5l28.2-160.3h-20.2l1.6-9.6h31.5L1849.8,556.4z"/>
<path d="M1913.2,506.3c-0.5,3.1-0.7,6.1-0.7,9.4c0,24,13.4,42.5,34.5,42.5c16,0,32.7-9.4,43.5-22.3l7.3,7.3
	c-12,15.3-31.3,25.6-51.5,25.6c-28,0-45.8-22.6-45.8-52.6c0-38.8,29.1-71.7,63.7-71.7c26.3,0,42.8,20,42.8,43.2
	c0,6.1-1.2,12.9-2.6,18.6H1913.2z M1915.1,496.7h79c0.7-2.6,0.9-6.6,0.9-9.4c0-17.9-12.7-32.7-31.5-32.4
	C1941.4,454.9,1922.1,472.7,1915.1,496.7z"/>
<path d="M2102.4,479.8l3.3-18.6c-7.3-3.8-16.7-6.3-26.3-6.3c-14.3,0-26.8,8.2-26.8,21.2c0,24.2,56.9,21.1,56.9,55.9
	c0,22.1-19.3,36.9-41.8,36.9c-15.3,0-29.6-3.5-41.4-8.7l5.2-29.6h10.3l-3.8,21.6c8.2,3.8,18.6,6.6,29.8,6.6
	c16.4,0,30.1-10.8,30.1-25.8c0-26.6-56.6-24-56.6-56.2c0-19,17.6-31.7,38.1-31.7c14.1,0,27.5,3.8,38.1,8.9l-4.7,25.9H2102.4z"/>
</svg>
