<?xml version="1.0" encoding="utf-8"?>
<!-- Generator: $$$/GeneralStr/196=Adobe Illustrator 27.6.0, SVG Export Plug-In . SVG Version: 6.00 Build 0)  -->
<svg version="1.2" baseProfile="tiny" id="Calque_1"
	 xmlns="http://www.w3.org/2000/svg" xmlns:xlink="http://www.w3.org/1999/xlink" x="0px" y="0px" viewBox="0 0 1920 635.3"
	 overflow="visible" xml:space="preserve">
<g>
	<path d="M217.7,85.4c0-49.4,36.1-85.4,86.1-85.4c49.4,0,86.1,36.1,86.1,85.4c0,51.9-35.4,88.9-86.1,88.9S217.7,137.3,217.7,85.4z
		 M362.5,85.4c0-37-24-62.6-58.8-62.6c-34.8,0-58.8,25.6-58.8,62.6c0,39.5,24,66.1,58.8,66.1C338.5,151.5,362.5,125,362.5,85.4z"/>
	<path d="M595.4,148.7v20.9H546V143c-9.2,19-29.1,30.7-52.8,30.7c-36.7,0-56.6-25.3-56.6-61.1V25.9h-24V5.1h49.4v104.1
		c0,24.7,14.9,41.4,38.6,41.4c25.6,0,45.6-19.9,45.6-44.9V25.9h-24V5.1h49.4v143.6H595.4z"/>
	<path d="M188.9,346.4v20.9h-49.4v-26.9C128.1,359.1,106.9,372,80,372c-44.3,0-76.2-34.8-76.2-88.6c0-51.6,35.8-85.7,78.8-85.7
		c25.3,0,46.5,13.6,56.9,33.2v-71.5h-24v-20.9h49.4v207.9H188.9z M141.1,283.5c0-35.7-24-63-54.7-63c-32,0-55,25.9-55,62.6
		c0,38.6,22.1,66.4,54.1,66.4C117.7,349.6,141.1,322.1,141.1,283.5z"/>
	<path d="M215.4,283.1c0-49.4,36.1-85.4,86.1-85.4c49.4,0,86.1,36.1,86.1,85.4c0,51.9-35.4,88.9-86.1,88.9S215.4,335,215.4,283.1z
		 M360.3,283.1c0-37-24-62.6-58.8-62.6c-34.8,0-58.8,25.6-58.8,62.6c0,39.5,24,66.1,58.8,66.1C336.3,349.3,360.3,322.7,360.3,283.1z
		"/>
	<path d="M185.7,481.2c0,52.2-33.5,88.6-80.4,88.6c-25.3,0-45.2-13-56-31.3v64.9h28.5v20.9H0v-20.9h24V421.4H0v-20.9h49.4v28.2
		c10.4-17.7,30.4-33.2,59.5-33.2C154.4,395.5,185.7,431.8,185.7,481.2z M158.2,482.1c0-38-22.1-64.2-54.7-64.2
		c-31.3,0-55.7,27.5-55.7,64.2c0,38.6,23.1,65.2,55.7,65.2C135.1,547.3,158.2,521.4,158.2,482.1z"/>
	<path d="M218,480.9c0-49.4,36.1-85.4,86.1-85.4c49.4,0,86.1,36.1,86.1,85.4c0,51.9-35.4,88.9-86.1,88.9S218,532.8,218,480.9z
		 M362.9,480.9c0-37-24-62.6-58.8-62.6c-34.8,0-58.8,25.6-58.8,62.6c0,39.5,24,66.1,58.8,66.1C338.8,547,362.9,520.4,362.9,480.9z"
		/>
</g>
<g>
	<path d="M839.8,114.1c0-46.3,33.8-86.4,76.1-86.4c33,0,55.4,24.5,55.4,56.8c0,46.1-33.8,88-76.1,88
		C862.1,172.5,839.8,147.1,839.8,114.1z M953.9,86.4c0-26.3-14.4-44.1-39.2-44.1c-32.6,0-57.5,34.4-57.5,69.8
		c0,26.5,14.4,45.7,39,45.7C928.8,157.8,953.9,121.8,953.9,86.4z"/>
	<path d="M1087.2,156.8l-2.2,12.5h-31.4l3-16.6c-7.7,11.1-18.8,19.2-33,19.2c-16.6,0-27.1-12.9-27.1-28.5c0-3,0.4-6.3,1-9.1
		l9.5-53.4h-16.2l2.2-12.5h31.2l-11.5,64.7c-0.4,2.2-0.6,4.5-0.6,6.5c0,10.7,5.9,18.4,16.6,18.4c14.4,0,29.5-14.8,32-29.5l10.7-60.1
		h15l-15.6,88.4H1087.2z"/>
	<path d="M1198.5,83.9c0,31.2-22.5,61.5-55.6,86.2h-15.2l-8.7-89.2h-17.6l2.2-12.5h29.7l8.1,86.6c22.3-18.8,42.9-43.9,42.9-70.2
		c0-1.2,0-2.6-0.2-4h-19l2.2-12.5h29.7C1197.9,73.4,1198.5,79.1,1198.5,83.9z"/>
	<path d="M1296.9,70.6l-9.7,14.8c-3-1.8-7.1-3.2-11.7-3.2c-16.6,0-29.5,14-32.8,32.4l-9.7,54.6h-15l15.6-88.4h-16.2l2.2-12.5h31.2
		l-4,22c7.3-13.4,19.6-24.7,33.2-24.7C1286.5,65.7,1292.8,67.7,1296.9,70.6z"/>
	<path d="M1299.1,128c0-34.4,23.3-63.1,56-63.1c25.7,0,42.9,17.8,42.9,43.7c0,34.4-23.3,64.1-56.2,64.1
		C1315.7,172.6,1299.1,154.7,1299.1,128z M1381.8,109.6c0-18.6-10.7-30.8-26.9-30.8c-22.9,0-39.5,23.5-39.5,48.4
		c0,18.6,10.3,31.6,26.5,31.6C1364.8,158.8,1381.8,134.5,1381.8,109.6z"/>
	<path d="M1437.7,156.8h16.2l-2.2,12.5h-31.2l15.6-88.4h-16.2l2.2-12.5h31.2L1437.7,156.8z M1460.5,36.6c0,6.3-4.9,11.1-11.3,11.1
		c-6.1,0-10.9-4.7-10.9-11.1c0-6.1,4.7-11.1,10.9-11.1C1455.5,25.5,1460.5,30.5,1460.5,36.6z"/>
	<path d="M1557.9,70.6l-9.7,14.8c-3-1.8-7.1-3.2-11.7-3.2c-16.6,0-29.5,14-32.8,32.4l-9.7,54.6h-15l15.6-88.4h-16.2l2.2-12.5h31.2
		l-4,22c7.3-13.4,19.6-24.7,33.2-24.7C1547.5,65.7,1553.8,67.7,1557.9,70.6z"/>
	<path d="M921.1,354.6h16.2l-2.2,12.5h-31.2l3.2-17.2c-7.5,11.5-20.6,20.2-36.6,20.2c-20.6,0-35.6-17.6-35.6-42.7
		c0-36,23.7-64.3,54.2-64.3c14.4,0,24.9,8.3,29.7,19.6l8.1-46.1h-16.2l2.2-12.5H944L921.1,354.6z M914.7,306.5
		c0-18.6-9.7-29.7-25.7-29.7c-20.2,0-38,23.5-38,48.4c0,18.8,8.5,30.8,23.9,30.8C897.5,356.1,914.7,332.2,914.7,306.5z"/>
	<path d="M975.6,318c-0.2,1.8-0.2,3.8-0.2,5.5c0,18.2,9.9,32.2,25.7,32.2c12.3,0,24.9-6.5,33.2-16.2l9.1,8.7
		c-9.9,13-26.5,21.4-44.1,21.4c-24.9,0-39.9-18.4-39.9-45.3c0-34.6,26.3-61.3,55.4-61.3c23.5,0,37,17.6,37,37.6
		c0,5.5-1,12.3-2.4,17.4H975.6z M978.4,305.7h56.8c0.2-1.4,0.4-4,0.4-5.9c0-13-8.5-23.3-22.1-23.3
		C999,276.5,984.5,288.3,978.4,305.7z"/>
	<path d="M1208.2,354.6h16.2l-2.2,12.5H1191l3.2-17.2c-7.5,11.5-20.6,20.2-36.6,20.2c-20.6,0-35.6-17.6-35.6-42.7
		c0-36,23.7-64.3,54.2-64.3c14.4,0,24.9,8.3,29.7,19.6l8.1-46.1h-16.2l2.2-12.5h31.2L1208.2,354.6z M1201.8,306.5
		c0-18.6-9.7-29.7-25.7-29.7c-20.2,0-38,23.5-38,48.4c0,18.8,8.5,30.8,23.9,30.8C1184.6,356.1,1201.8,332.2,1201.8,306.5z"/>
	<path d="M1246.5,325.7c0-34.4,23.3-63.1,56-63.1c25.7,0,42.9,17.8,42.9,43.7c0,34.4-23.3,64.1-56.2,64.1
		C1263.1,370.4,1246.5,352.4,1246.5,325.7z M1329.2,307.3c0-18.6-10.7-30.8-26.9-30.8c-22.9,0-39.5,23.5-39.5,48.4
		c0,18.6,10.3,31.6,26.5,31.6C1312.2,356.5,1329.2,332.2,1329.2,307.3z"/>
	<path d="M1467.2,354.6L1465,367h-31.2l11.5-65.3c0.4-1.8,0.6-3.6,0.6-5.5c0-11.3-8.1-18.8-20.4-18.8c-14.4,0-29.3,13.8-31.8,29.5
		l-10.7,60.1h-15l15.6-88.4h-16.2l2.2-12.5h31.2l-3,16.6c7.1-11.1,20-19.2,34.2-19.2c17,0,29.3,12.7,29.3,29.3
		c0,2.6-0.4,5.3-0.8,7.7l-9.5,54H1467.2z"/>
	<path d="M1591,354.6l-2.2,12.5h-31.2l11.5-65.3c0.4-1.8,0.6-3.6,0.6-5.5c0-11.3-8.1-18.8-20.4-18.8c-14.4,0-29.3,13.8-31.8,29.5
		l-10.7,60.1h-15l15.6-88.4h-16.2l2.2-12.5h31.2l-3,16.6c7.1-11.1,20-19.2,34.2-19.2c17,0,29.3,12.7,29.3,29.3
		c0,2.6-0.4,5.3-0.8,7.7l-9.5,54H1591z"/>
	<path d="M1628.7,318c-0.2,1.8-0.2,3.8-0.2,5.5c0,18.2,9.9,32.2,25.7,32.2c12.3,0,24.9-6.5,33.2-16.2l9.1,8.7
		c-9.9,13-26.5,21.4-44.1,21.4c-24.9,0-39.9-18.4-39.9-45.3c0-34.6,26.3-61.3,55.4-61.3c23.5,0,37,17.6,37,37.6
		c0,5.5-1,12.3-2.4,17.4H1628.7z M1631.5,305.7h56.8c0.2-1.4,0.4-4,0.4-5.9c0-13-8.5-23.3-22.1-23.3
		C1652.1,276.5,1637.6,288.3,1631.5,305.7z M1679.7,222.7h20l-24.9,27.3h-15L1679.7,222.7z"/>
	<path d="M1742,318c-0.2,1.8-0.2,3.8-0.2,5.5c0,18.2,9.9,32.2,25.7,32.2c12.3,0,24.9-6.5,33.2-16.2l9.1,8.7
		c-9.9,13-26.5,21.4-44.1,21.4c-24.9,0-39.9-18.4-39.9-45.3c0-34.6,26.3-61.3,55.4-61.3c23.5,0,37,17.6,37,37.6
		c0,5.5-1,12.3-2.4,17.4H1742z M1744.8,305.7h56.8c0.2-1.4,0.4-4,0.4-5.9c0-13-8.5-23.3-22.1-23.3
		C1765.3,276.5,1750.9,288.3,1744.8,305.7z"/>
	<path d="M1894.1,294.8l2.4-14.2c-5.7-3.2-12.7-4.9-19.6-4.9c-10.3,0-18.4,6.1-18.4,14.8c0,19.2,45.3,16.4,45.3,47.1
		c0,19.2-16.4,32-36.4,32c-13.2,0-25.5-3.4-36-7.9l4.3-24.9h13.1l-2.6,14.8c6.1,3,13.4,4.9,21.6,4.9c12.1,0,20.8-7.5,20.8-17.8
		c0-19.6-44.9-17.4-44.9-46.9c0-16.6,15.4-28.3,33.4-28.3c12.9,0,24.5,3.8,33.8,8.5l-3.8,22.7H1894.1z"/>
	<path d="M940.1,503.6c0,35.2-23.5,64.1-54.8,64.1c-14.2,0-24.3-8.5-28.9-20.6l-9.7,54.6h-15l22.1-125.4h-16.4l2.2-12.5H871l-3,17
		c7.7-11.3,19.6-20.2,36-20.2C925,460.7,940.1,479.9,940.1,503.6z M923.8,504.4c0-18.4-9.1-29.9-24.5-29.9c-22.3,0-39,24.3-39,49.2
		c0,18.2,9.5,30.1,24.9,30.1C906.8,553.9,923.8,529.3,923.8,504.4z"/>
	<path d="M961.6,523.4c0-34.4,23.3-63.1,56-63.1c25.7,0,42.9,17.8,42.9,43.7c0,34.4-23.3,64.1-56.2,64.1
		C978.2,568.1,961.6,550.1,961.6,523.4z M1044.2,505c0-18.6-10.7-30.8-26.9-30.8c-22.9,0-39.5,23.5-39.5,48.4
		c0,18.6,10.3,31.6,26.5,31.6C1027.2,554.3,1044.2,529.9,1044.2,505z"/>
	<path d="M1087,543.4c0-2.2,0.2-4.9,0.6-7.5l10.5-59.5h-16.2l2.2-12.5h16.2l4.4-23.5h15l-4.2,23.5h21.9l-2.2,12.5h-21.9l-10.5,58.9
		c-0.2,1.6-0.4,3.2-0.4,4.7c0,6.5,4.4,11.7,10.9,11.7c3.2,0,6.5-0.8,9.3-1.6l2.4,12.3c-4.4,1.8-9.7,2.8-14.6,2.8
		C1097,565.1,1087,555.4,1087,543.4z"/>
	<path d="M1162.3,515.7c-0.2,1.8-0.2,3.8-0.2,5.5c0,18.2,9.9,32.2,25.7,32.2c12.3,0,24.9-6.5,33.2-16.2l9.1,8.7
		c-9.9,13-26.5,21.4-44.1,21.4c-24.9,0-39.9-18.4-39.9-45.3c0-34.6,26.3-61.3,55.4-61.3c23.5,0,37,17.6,37,37.6
		c0,5.5-1,12.3-2.4,17.4H1162.3z M1165.1,503.4h56.8c0.2-1.4,0.4-4,0.4-5.9c0-13-8.5-23.3-22.1-23.3
		C1185.6,474.2,1171.2,486,1165.1,503.4z"/>
	<path d="M1359.6,552.3l-2.2,12.5h-31.2l11.5-65.3c0.4-1.8,0.6-3.6,0.6-5.5c0-11.3-8.1-18.8-20.4-18.8c-14.4,0-29.3,13.8-31.8,29.5
		l-10.7,60.1h-15l15.6-88.4h-16.2l2.2-12.5h31.2l-3,16.6c7.1-11.1,20-19.2,34.2-19.2c17,0,29.3,12.7,29.3,29.3
		c0,2.6-0.4,5.3-0.8,7.7l-9.5,54H1359.6z"/>
	<path d="M1388.1,543.4c0-2.2,0.2-4.9,0.6-7.5l10.5-59.5h-16.2l2.2-12.5h16.2l4.4-23.5h15l-4.2,23.5h21.9l-2.2,12.5h-21.9
		l-10.5,58.9c-0.2,1.6-0.4,3.2-0.4,4.7c0,6.5,4.4,11.7,10.9,11.7c3.2,0,6.5-0.8,9.3-1.6l2.4,12.3c-4.4,1.8-9.7,2.8-14.6,2.8
		C1398.2,565.1,1388.1,555.4,1388.1,543.4z"/>
	<path d="M1467.4,552.3h16.2l-2.2,12.5h-31.2l15.6-88.4h-16.2l2.2-12.5h31.2L1467.4,552.3z M1490.1,432.1c0,6.3-4.9,11.1-11.3,11.1
		c-6.1,0-10.9-4.7-10.9-11.1c0-6.1,4.7-11.1,10.9-11.1C1485.2,421,1490.1,425.9,1490.1,432.1z"/>
	<path d="M1521.9,515.7c-0.2,1.8-0.2,3.8-0.2,5.5c0,18.2,9.9,32.2,25.7,32.2c12.3,0,24.9-6.5,33.2-16.2l9.1,8.7
		c-9.9,13-26.5,21.4-44.1,21.4c-24.9,0-39.9-18.4-39.9-45.3c0-34.6,26.3-61.3,55.4-61.3c23.5,0,37,17.6,37,37.6
		c0,5.5-1,12.3-2.4,17.4H1521.9z M1524.7,503.4h56.8c0.2-1.4,0.4-4,0.4-5.9c0-13-8.5-23.3-22.1-23.3
		C1545.3,474.2,1530.8,486,1524.7,503.4z"/>
	<path d="M1635.6,552.3h16.2l-2.2,12.5h-31.2l23.1-130.5h-16.2l2.2-12.5h31.2L1635.6,552.3z"/>
	<path d="M1692.6,552.3h16.2l-2.2,12.5h-31.2l23.1-130.5h-16.2l2.2-12.5h31.2L1692.6,552.3z"/>
	<path d="M1747.1,515.7c-0.2,1.8-0.2,3.8-0.2,5.5c0,18.2,9.9,32.2,25.7,32.2c12.3,0,24.9-6.5,33.2-16.2l9.1,8.7
		c-9.9,13-26.5,21.4-44.1,21.4c-24.9,0-39.9-18.4-39.9-45.3c0-34.6,26.3-61.3,55.4-61.3c23.5,0,37,17.6,37,37.6
		c0,5.5-1,12.3-2.4,17.4H1747.1z M1749.9,503.4h56.8c0.2-1.4,0.4-4,0.4-5.9c0-13-8.5-23.3-22.1-23.3
		C1770.5,474.2,1756,486,1749.9,503.4z"/>
	<path d="M1899.2,492.6l2.4-14.2c-5.7-3.2-12.7-4.9-19.6-4.9c-10.3,0-18.4,6.1-18.4,14.8c0,19.2,45.3,16.4,45.3,47.1
		c0,19.2-16.4,32-36.4,32c-13.2,0-25.5-3.4-36-7.9l4.3-24.9h13.1l-2.6,14.8c6.1,3,13.4,4.9,21.6,4.9c12.1,0,20.8-7.5,20.8-17.8
		c0-19.6-44.9-17.4-44.9-46.9c0-16.6,15.4-28.3,33.4-28.3c12.9,0,24.5,3.8,33.8,8.5l-3.8,22.7H1899.2z"/>
</g>
</svg>
