<?xml version="1.0" encoding="utf-8"?>
<!-- Generator: $$$/GeneralStr/196=Adobe Illustrator 27.6.0, SVG Export Plug-In . SVG Version: 6.00 Build 0)  -->
<svg version="1.1" id="Calque_1" xmlns="http://www.w3.org/2000/svg" xmlns:xlink="http://www.w3.org/1999/xlink" x="0px" y="0px"
	 viewBox="0 0 2164.7 635.3" style="enable-background:new 0 0 2164.7 635.3;" xml:space="preserve">
<g>
	<path d="M220.7,91.4C220.7,42,256.8,6,306.8,6c49.4,0,86.1,36.1,86.1,85.4c0,51.9-35.4,88.9-86.1,88.9S220.7,143.3,220.7,91.4z
		 M365.5,91.4c0-37-24-62.6-58.8-62.6s-58.8,25.6-58.8,62.6c0,39.5,24,66.1,58.8,66.1S365.5,131,365.5,91.4z"/>
	<path d="M598.4,154.7v20.9H549V149c-9.2,19-29.1,30.7-52.8,30.7c-36.7,0-56.6-25.3-56.6-61.1V31.9h-24V11.1H465v104.1
		c0,24.7,14.9,41.4,38.6,41.4c25.6,0,45.6-19.9,45.6-44.9V31.9h-24V11.1h49.4v143.6L598.4,154.7L598.4,154.7z"/>
	<path d="M191.9,352.4v20.9h-49.4v-26.9C131.1,365.1,109.9,378,83,378c-44.3,0-76.2-34.8-76.2-88.6c0-51.6,35.8-85.7,78.8-85.7
		c25.3,0,46.5,13.6,56.9,33.2v-71.5h-24v-20.9h49.4v207.9H191.9z M144.1,289.5c0-35.7-24-63-54.7-63c-32,0-55,25.9-55,62.6
		c0,38.6,22.1,66.4,54.1,66.4C120.7,355.6,144.1,328.1,144.1,289.5z"/>
	<path d="M218.4,289.1c0-49.4,36.1-85.4,86.1-85.4c49.4,0,86.1,36.1,86.1,85.4c0,51.9-35.4,88.9-86.1,88.9S218.4,341,218.4,289.1z
		 M363.3,289.1c0-37-24-62.6-58.8-62.6s-58.8,25.6-58.8,62.6c0,39.5,24,66.1,58.8,66.1C339.3,355.3,363.3,328.7,363.3,289.1z"/>
	<path d="M188.7,487.2c0,52.2-33.5,88.6-80.4,88.6c-25.3,0-45.2-13-56-31.3v64.9h28.5v20.9H3v-20.9h24v-182H3v-20.9h49.4v28.2
		c10.4-17.7,30.4-33.2,59.5-33.2C157.4,401.5,188.7,437.8,188.7,487.2z M161.2,488.1c0-38-22.1-64.2-54.7-64.2
		c-31.3,0-55.7,27.5-55.7,64.2c0,38.6,23.1,65.2,55.7,65.2C138.1,553.3,161.2,527.4,161.2,488.1z"/>
	<path d="M221,486.9c0-49.4,36.1-85.4,86.1-85.4c49.4,0,86.1,36.1,86.1,85.4c0,51.9-35.4,88.9-86.1,88.9S221,538.8,221,486.9z
		 M365.9,486.9c0-37-24-62.6-58.8-62.6s-58.8,25.6-58.8,62.6c0,39.5,24,66.1,58.8,66.1C341.8,553,365.9,526.4,365.9,486.9z"/>
</g>
<path d="M1084.8,104.4c0-54.5,39.5-101.8,89.5-101.8c38.3,0,63.7,28,63.7,66.3c0,53.8-39.7,104.1-89.8,104.1
	C1109.7,173.1,1084.8,143.7,1084.8,104.4z M1225.1,70.4c0-33.6-19-56.6-51.7-56.6c-43,0-75.7,43.2-75.7,89.5
	c0,33.8,18.8,58.8,51.2,58.8C1192,162,1225.1,116,1225.1,70.4z"/>
<path d="M1373.6,160.4l-1.6,9.6h-31.5l4.2-24.2c-8.9,14.6-23.7,27-42.3,27c-19.3,0-32-15-32-33.1c0-3.5,0.5-7.3,0.9-10.6l12-67.7
	h-20.2l1.6-9.6h31.7l-13.6,76.4c-0.5,2.8-0.9,6.3-0.9,8.9c0,15,8.7,25.1,24.2,25.1c19,0,40-23.7,43-41.1l12.2-69.3h11.3l-19.3,108.6
	L1373.6,160.4L1373.6,160.4z"/>
<path d="M1504.8,66.4c0,37.8-27.5,74.3-66.7,104.6h-10.8l-12.5-109.5h-20.7l1.6-9.6h29.4l12,107.9c30.5-25.6,56.9-58.3,56.9-92.6
	c0-1.6,0-3.5-0.2-5.6h-22.1l1.6-9.6h30.1C1504.3,56.3,1504.8,61.9,1504.8,66.4z"/>
<path d="M1615.4,53l-6.1,11c-3.5-1.6-8.7-3.1-13.6-3.1c-20.2,0-38.1,23.7-41.8,45.4l-11.3,63.7h-11.3l19-108.6h-20.2l1.6-9.6h31.5
	l-4.9,29.1c8.2-18.1,23.3-32,40.4-32C1605.1,49,1611,50.6,1615.4,53z"/>
<path d="M1621.3,121.4c0-39,27-73.1,64.2-73.1c28.4,0,47.9,20.7,47.9,50.8c0,39-27.5,74.3-64.2,74.3
	C1640.1,173.3,1621.3,151.9,1621.3,121.4z M1721.4,99.7c0-24.7-14.8-40.9-36.2-40.9c-29.8,0-51.9,29.8-51.9,62
	c0,24.4,14.1,41.8,36,41.8C1698.6,162.7,1721.4,131.7,1721.4,99.7z"/>
<path d="M1777.8,160.4h20.2l-1.6,9.6h-31.5l19-108.6h-20.2l1.6-9.6h31.7L1777.8,160.4z M1806.3,15.4c0,5.6-4.5,10.1-10.1,10.1
	s-10.1-4.5-10.1-10.1s4.5-10.1,10.1-10.1C1801.8,5.3,1806.3,9.7,1806.3,15.4z"/>
<path d="M1916.2,53l-6.1,11c-3.5-1.6-8.7-3.1-13.6-3.1c-20.2,0-38.1,23.7-41.8,45.4l-11.3,63.7h-11.3l19-108.6h-20.2l1.6-9.6h31.5
	l-4.9,29.1c8.2-18.1,23.3-32,40.4-32C1905.9,49,1911.8,50.6,1916.2,53z"/>
<path d="M987.8,207.7h-20.2l1.6-9.6h31.5l-28.2,160.3h20.2l-1.6,9.6h-31.5l4.9-27.5c-9.2,17.2-25.6,30.5-47.9,30.5
	c-23.5,0-40.7-22.1-40.7-50.1c0-40.7,27.5-74.5,61.3-74.5c21.6,0,34.5,12.7,38.5,29.8L987.8,207.7z M972,296.1c0-23.3-14.6-39-35-39
	c-26.3,0-49.1,29.8-49.1,62.7c0,23.5,12,40.7,31.3,40.7C947.6,360.5,972,328.3,972,296.1z"/>
<path d="M1036,308.3c-0.5,3.1-0.7,6.1-0.7,9.4c0,24,13.4,42.5,34.5,42.5c16,0,32.7-9.4,43.5-22.3l7.3,7.3
	c-12,15.3-31.3,25.6-51.5,25.6c-28,0-45.8-22.6-45.8-52.6c0-38.8,29.1-71.7,63.7-71.7c26.3,0,42.8,20,42.8,43.2
	c0,6.1-1.2,12.9-2.6,18.6H1036z M1037.8,298.7h79c0.7-2.6,0.9-6.6,0.9-9.4c0-17.9-12.7-32.7-31.5-32.4
	C1064.2,256.9,1044.9,274.7,1037.8,298.7z"/>
<path d="M1327.1,207.7h-20.2l1.6-9.6h31.5l-28.2,160.3h20.2l-1.6,9.6h-31.5l4.9-27.5c-9.2,17.2-25.6,30.5-47.9,30.5
	c-23.5,0-40.7-22.1-40.7-50.1c0-40.7,27.5-74.5,61.3-74.5c21.6,0,34.5,12.7,38.5,29.8L1327.1,207.7z M1311.4,296.1
	c0-23.3-14.6-39-35-39c-26.3,0-49.1,29.8-49.1,62.7c0,23.5,12,40.7,31.3,40.7C1286.9,360.5,1311.4,328.3,1311.4,296.1z"/>
<path d="M1362.6,319.4c0-39,27-73.1,64.2-73.1c28.4,0,47.9,20.7,47.9,50.8c0,39-27.5,74.3-64.2,74.3
	C1381.4,371.3,1362.6,349.9,1362.6,319.4z M1462.7,297.7c0-24.7-14.8-40.9-36.2-40.9c-29.8,0-51.9,29.8-51.9,62
	c0,24.4,14.1,41.8,36,41.8C1439.9,360.7,1462.7,329.7,1462.7,297.7z"/>
<path d="M1619.7,358.4l-1.6,9.6h-31.5l13.4-76.8c0.5-2.6,0.7-5.4,0.7-8c0-15.5-9.6-25.6-27.3-25.6c-19,0-40,19.3-43.5,39.2
	l-12.5,71.2h-11.3l19-108.6h-20.2l1.6-9.6h31.7l-4,21.9c9.2-14.6,24-24.7,43-24.7c20.7,0,35,14.1,35,33.8c0,3.1-0.2,6.1-0.7,9.2
	l-12.2,68.4H1619.7z"/>
<path d="M1766.6,358.4l-1.6,9.6h-31.5l13.4-76.8c0.5-2.6,0.7-5.4,0.7-8c0-15.5-9.6-25.6-27.3-25.6c-19,0-40,19.3-43.5,39.2
	l-12.5,71.2H1653l19-108.6h-20.2l1.6-9.6h31.7l-4,21.9c9.2-14.6,24-24.7,43-24.7c20.7,0,35,14.1,35,33.8c0,3.1-0.2,6.1-0.7,9.2
	l-12.2,68.4H1766.6z"/>
<path d="M1809.1,308.3c-0.5,3.1-0.7,6.1-0.7,9.4c0,24,13.4,42.5,34.5,42.5c16,0,32.7-9.4,43.5-22.3l7.3,7.3
	c-12,15.3-31.3,25.6-51.5,25.6c-28,0-45.8-22.6-45.8-52.6c0-38.8,29.1-71.7,63.7-71.7c26.3,0,42.8,20,42.8,43.2
	c0,6.1-1.2,12.9-2.6,18.6H1809.1z M1811,298.7h79c0.7-2.6,0.9-6.6,0.9-9.4c0-17.9-12.7-32.7-31.5-32.4
	C1837.3,256.9,1818,274.7,1811,298.7z M1872.8,199h15l-26.1,30.8h-11.5L1872.8,199z"/>
<path d="M1943.3,308.3c-0.5,3.1-0.7,6.1-0.7,9.4c0,24,13.4,42.5,34.5,42.5c16,0,32.7-9.4,43.5-22.3l7.3,7.3
	c-12,15.3-31.3,25.6-51.5,25.6c-28,0-45.8-22.6-45.8-52.6c0-38.8,29.1-71.7,63.7-71.7c26.3,0,42.8,20,42.8,43.2
	c0,6.1-1.2,12.9-2.6,18.6H1943.3z M1945.2,298.7h79c0.7-2.6,0.9-6.6,0.9-9.4c0-17.9-12.7-32.7-31.5-32.4
	C1971.5,256.9,1952.2,274.7,1945.2,298.7z"/>
<path d="M2132.5,281.8l3.3-18.6c-7.3-3.8-16.7-6.3-26.3-6.3c-14.3,0-26.8,8.2-26.8,21.1c0,24.2,56.9,21.2,56.9,55.9
	c0,22.1-19.3,36.9-41.8,36.9c-15.3,0-29.6-3.5-41.4-8.7l5.2-29.6h10.3l-3.8,21.6c8.2,3.8,18.6,6.6,29.8,6.6
	c16.4,0,30.1-10.8,30.1-25.8c0-26.6-56.6-24-56.6-56.2c0-19,17.6-31.7,38.1-31.7c14.1,0,27.5,3.8,38.1,8.9l-4.7,25.9H2132.5z"/>
<path d="M962.7,444.5c24.9,0,41.8,22.6,41.8,50.1c0,39.7-27,74.5-62.5,74.5c-20.9,0-33.8-13.2-38.1-30.8L891.5,610h-11.3L907,457.2
	h-20.4l1.6-9.4h31.7l-4.5,26.3C924.8,457.4,940.6,444.5,962.7,444.5z M992.5,495c0-23-12.5-40.2-32.9-40
	c-27.7,0.2-51.9,31.5-51.9,63.7c0,22.8,13.9,39.7,34.5,39.7C970.4,558.5,992.5,527.5,992.5,495z"/>
<path d="M1033.6,517.4c0-39,27-73.1,64.2-73.1c28.4,0,47.9,20.7,47.9,50.8c0,39-27.5,74.3-64.2,74.3
	C1052.4,569.3,1033.6,547.9,1033.6,517.4z M1133.7,495.7c0-24.7-14.8-40.9-36.2-40.9c-29.8,0-51.9,29.8-51.9,62
	c0,24.4,14.1,41.8,36,41.8C1110.9,558.7,1133.7,527.7,1133.7,495.7z"/>
<path d="M1181.2,542.7c0-2.4,0.2-5.4,0.7-8.2l13.6-77.1h-20.2l1.6-9.6h20.2l4.9-28h11.3l-4.9,28h27.5l-1.6,9.6h-27.5l-13.6,76.8
	c-0.2,2.1-0.5,4.2-0.5,6.3c0,9.4,5.4,15.7,14.3,15.7c4,0,8.7-1.2,12.2-2.6l2.1,9.9c-4.7,1.9-10.8,2.8-16.2,2.8
	C1191.3,566.5,1181.2,556.8,1181.2,542.7z"/>
<path d="M1263.2,506.3c-0.5,3.1-0.7,6.1-0.7,9.4c0,24,13.4,42.5,34.5,42.5c16,0,32.7-9.4,43.5-22.3l7.3,7.3
	c-12,15.3-31.3,25.6-51.5,25.6c-28,0-45.8-22.6-45.8-52.6c0-38.8,29.1-71.7,63.7-71.7c26.3,0,42.8,20,42.8,43.2
	c0,6.1-1.2,12.9-2.6,18.6L1263.2,506.3L1263.2,506.3z M1265.1,496.7h79c0.7-2.6,0.9-6.6,0.9-9.4c0-17.9-12.7-32.7-31.5-32.4
	C1291.4,454.9,1272.1,472.7,1265.1,496.7z"/>
<path d="M1500.3,556.4l-1.6,9.6h-31.5l13.4-76.8c0.5-2.6,0.7-5.4,0.7-8c0-15.5-9.6-25.6-27.3-25.6c-19,0-40,19.3-43.5,39.2L1398,566
	h-11.3l19-108.6h-20.1l1.6-9.6h31.7l-4,21.9c9.2-14.6,24-24.7,43-24.7c20.7,0,35,14.1,35,33.8c0,3.1-0.2,6.1-0.7,9.2l-12.2,68.4
	L1500.3,556.4L1500.3,556.4z"/>
<path d="M1537.7,542.7c0-2.4,0.2-5.4,0.7-8.2l13.6-77.1h-20.2l1.6-9.6h20.2l4.9-28h11.3l-4.9,28h27.5l-1.6,9.6h-27.5l-13.6,76.8
	c-0.2,2.1-0.5,4.2-0.5,6.3c0,9.4,5.4,15.7,14.3,15.7c4,0,8.7-1.2,12.2-2.6l2.1,9.9c-4.7,1.9-10.8,2.8-16.2,2.8
	C1547.8,566.5,1537.7,556.8,1537.7,542.7z"/>
<path d="M1623.5,556.4h20.2l-1.6,9.6h-31.5l19-108.6h-20.2l1.6-9.6h31.7L1623.5,556.4z M1651.9,411.4c0,5.6-4.5,10.1-10.1,10.1
	s-10.1-4.5-10.1-10.1s4.5-10.1,10.1-10.1S1651.9,405.7,1651.9,411.4z"/>
<path d="M1686.9,506.3c-0.5,3.1-0.7,6.1-0.7,9.4c0,24,13.4,42.5,34.5,42.5c16,0,32.7-9.4,43.5-22.3l7.3,7.3
	c-12,15.3-31.3,25.6-51.5,25.6c-28,0-45.8-22.6-45.8-52.6c0-38.8,29.1-71.7,63.7-71.7c26.3,0,42.8,20,42.8,43.2
	c0,6.1-1.2,12.9-2.6,18.6L1686.9,506.3L1686.9,506.3z M1688.8,496.7h79c0.7-2.6,0.9-6.6,0.9-9.4c0-17.9-12.7-32.7-31.5-32.4
	C1715.1,454.9,1695.8,472.7,1688.8,496.7z"/>
<path d="M1821.8,556.4h20.2l-1.6,9.6h-31.5l28.2-160.3h-20.2l1.6-9.6h31.5L1821.8,556.4z"/>
<path d="M1887.4,556.4h20.2l-1.6,9.6h-31.5l28.2-160.3h-20.2l1.6-9.6h31.5L1887.4,556.4z"/>
<path d="M1950.8,506.3c-0.5,3.1-0.7,6.1-0.7,9.4c0,24,13.4,42.5,34.5,42.5c16,0,32.7-9.4,43.5-22.3l7.3,7.3
	c-12,15.3-31.3,25.6-51.5,25.6c-28,0-45.8-22.6-45.8-52.6c0-38.8,29.1-71.7,63.7-71.7c26.3,0,42.8,20,42.8,43.2
	c0,6.1-1.2,12.9-2.6,18.6L1950.8,506.3L1950.8,506.3z M1952.7,496.7h79c0.7-2.6,0.9-6.6,0.9-9.4c0-17.9-12.7-32.7-31.5-32.4
	C1979,454.9,1959.7,472.7,1952.7,496.7z"/>
<path d="M2140,479.8l3.3-18.6c-7.3-3.8-16.7-6.3-26.3-6.3c-14.3,0-26.8,8.2-26.8,21.2c0,24.2,56.9,21.1,56.9,55.9
	c0,22.1-19.3,36.9-41.8,36.9c-15.3,0-29.6-3.5-41.4-8.7l5.2-29.6h10.3l-3.8,21.6c8.2,3.8,18.6,6.6,29.8,6.6
	c16.4,0,30.1-10.8,30.1-25.8c0-26.6-56.6-24-56.6-56.2c0-19,17.6-31.7,38.1-31.7c14.1,0,27.5,3.8,38.1,8.9l-4.7,25.9L2140,479.8
	L2140,479.8z"/>
</svg>
